<svg xmlns="http://www.w3.org/2000/svg" width="69" height="69" viewBox="0 0 69 69">
  <g transform="translate(-100 -704)">
    <g opacity="0.4">
      <circle cx="34.5" cy="34.5" r="34.5" transform="translate(100 704)" fill="rgba(255,255,255,0)" stroke="#090f13" stroke-width="0"/>
      <g fill="none" stroke-linejoin="round">
        <path d="M134.5,704A34.5,34.5,0,1,1,100,738.5,34.5,34.5,0,0,1,134.5,704Z" stroke="none"/>
        <path d="M 134.5 706 C 130.1116485595703 706 125.8556213378906 706.8590087890625 121.8501434326172 708.5531616210938 C 117.9803009033203 710.1900024414062 114.5044097900391 712.5336303710938 111.5190277099609 715.51904296875 C 108.5336303710938 718.50439453125 106.1899871826172 721.9802856445312 104.5531921386719 725.8501586914062 C 102.8590240478516 729.8556518554688 102 734.1116333007812 102 738.5 C 102 742.8883666992188 102.8590240478516 747.1443481445312 104.5531921386719 751.1498413085938 C 106.1899871826172 755.0197143554688 108.5336303710938 758.49560546875 111.5190277099609 761.48095703125 C 114.5044097900391 764.4663696289062 117.9803009033203 766.8099975585938 121.8501434326172 768.4468383789062 C 125.8556213378906 770.1409912109375 130.1116485595703 771 134.5 771 C 138.8883514404297 771 143.1443786621094 770.1409912109375 147.1498565673828 768.4468383789062 C 151.0196990966797 766.8099975585938 154.4955902099609 764.4663696289062 157.4809875488281 761.48095703125 C 160.4663696289062 758.49560546875 162.8100128173828 755.0197143554688 164.4468078613281 751.1498413085938 C 166.1409759521484 747.1443481445312 167 742.8883666992188 167 738.5 C 167 734.1116333007812 166.1409759521484 729.8556518554688 164.4468078613281 725.8501586914062 C 162.8100128173828 721.9802856445312 160.4663696289062 718.50439453125 157.4809875488281 715.51904296875 C 154.4955902099609 712.5336303710938 151.0196990966797 710.1900024414062 147.1498565673828 708.5531616210938 C 143.1443786621094 706.8590087890625 138.8883514404297 706 134.5 706 M 134.5 704 C 153.5538330078125 704 169 719.4461669921875 169 738.5 C 169 757.5538330078125 153.5538330078125 773 134.5 773 C 115.4461669921875 773 100 757.5538330078125 100 738.5 C 100 719.4461669921875 115.4461669921875 704 134.5 704 Z" stroke="none" fill="#343434"/>
      </g>
    </g>
    <path d="M144,737.582l-7.6,7.534h0L134.5,747l-9.5-9.417,1.9-1.883,6.252,6.2V730h2.688v11.905l6.26-6.207Z" fill="#404040" stroke="#090f13" stroke-width="0"/>
  </g>
</svg>
